<svg width="23" height="23" viewBox="0 0 23 23" fill="none" xmlns="http://www.w3.org/2000/svg">
<path d="M19.125 11.5C19.125 15.7112 15.7112 19.125 11.5 19.125V21.125C16.8157 21.125 21.125 16.8157 21.125 11.5H19.125ZM11.5 19.125C7.28883 19.125 3.875 15.7112 3.875 11.5H1.875C1.875 16.8157 6.18426 21.125 11.5 21.125V19.125ZM3.875 11.5C3.875 7.28883 7.28883 3.875 11.5 3.875V1.875C6.18426 1.875 1.875 6.18426 1.875 11.5H3.875ZM11.5 3.875C15.7112 3.875 19.125 7.28883 19.125 11.5H21.125C21.125 6.18426 16.8157 1.875 11.5 1.875V3.875Z" fill="#B98500"/>
<path d="M11.7511 15.0821C12.1417 15.4726 12.7748 15.4726 13.1654 15.0821C13.5559 14.6916 13.5559 14.0584 13.1654 13.6679L11.7511 15.0821ZM9.58325 11.5L8.87615 10.7929C8.68861 10.9804 8.58325 11.2348 8.58325 11.5C8.58325 11.7652 8.68861 12.0196 8.87615 12.2071L9.58325 11.5ZM13.1654 9.33211C13.5559 8.94158 13.5559 8.30842 13.1654 7.91789C12.7748 7.52737 12.1417 7.52737 11.7511 7.91789L13.1654 9.33211ZM13.1654 13.6679L10.2904 10.7929L8.87615 12.2071L11.7511 15.0821L13.1654 13.6679ZM10.2904 12.2071L13.1654 9.33211L11.7511 7.91789L8.87615 10.7929L10.2904 12.2071Z" fill="#B98500"/>
</svg>
