<svg width="318" height="270" viewBox="0 0 318 270" fill="none" xmlns="http://www.w3.org/2000/svg">
<path d="M49.8801 124.933C52.0442 96.3173 63.3714 69.1611 82.1825 47.4895C100.994 25.818 126.287 10.7848 154.314 4.61845C182.34 -1.54788 211.608 1.48094 237.778 13.2559C263.948 25.0309 285.627 44.9252 299.601 69.9896C313.576 95.054 319.102 123.954 315.36 152.406C311.619 180.858 298.809 207.347 278.829 227.946C258.849 248.546 232.764 262.159 204.439 266.767C176.115 271.376 147.059 266.735 121.58 253.532" stroke="white" stroke-width="3"/>
<path d="M134.557 115.8H118.957L115.981 123H108.013L122.989 89.4H130.669L145.693 123H137.533L134.557 115.8ZM132.109 109.896L126.781 97.032L121.453 109.896H132.109ZM171.415 105.672H178.519V119.304C176.695 120.68 174.583 121.736 172.183 122.472C169.783 123.208 167.367 123.576 164.935 123.576C161.447 123.576 158.311 122.84 155.527 121.368C152.743 119.864 150.551 117.8 148.951 115.176C147.383 112.52 146.599 109.528 146.599 106.2C146.599 102.872 147.383 99.896 148.951 97.272C150.551 94.616 152.759 92.552 155.575 91.08C158.391 89.576 161.559 88.824 165.079 88.824C168.023 88.824 170.695 89.32 173.095 90.312C175.495 91.304 177.511 92.744 179.143 94.632L174.151 99.24C171.751 96.712 168.855 95.448 165.463 95.448C163.319 95.448 161.415 95.896 159.751 96.792C158.087 97.688 156.791 98.952 155.863 100.584C154.935 102.216 154.471 104.088 154.471 106.2C154.471 108.28 154.935 110.136 155.863 111.768C156.791 113.4 158.071 114.68 159.703 115.608C161.367 116.504 163.255 116.952 165.367 116.952C167.607 116.952 169.623 116.472 171.415 115.512V105.672ZM207.15 123L200.67 113.64H200.286H193.518V123H185.742V89.4H200.286C203.262 89.4 205.838 89.896 208.014 90.888C210.222 91.88 211.918 93.288 213.102 95.112C214.286 96.936 214.878 99.096 214.878 101.592C214.878 104.088 214.27 106.248 213.054 108.072C211.87 109.864 210.174 111.24 207.966 112.2L215.502 123H207.15ZM207.006 101.592C207.006 99.704 206.398 98.264 205.182 97.272C203.966 96.248 202.19 95.736 199.854 95.736H193.518V107.448H199.854C202.19 107.448 203.966 106.936 205.182 105.912C206.398 104.888 207.006 103.448 207.006 101.592ZM237.311 123.576C233.823 123.576 230.671 122.824 227.855 121.32C225.071 119.816 222.879 117.752 221.279 115.128C219.711 112.472 218.927 109.496 218.927 106.2C218.927 102.904 219.711 99.944 221.279 97.32C222.879 94.664 225.071 92.584 227.855 91.08C230.671 89.576 233.823 88.824 237.311 88.824C240.799 88.824 243.935 89.576 246.719 91.08C249.503 92.584 251.695 94.664 253.295 97.32C254.895 99.944 255.695 102.904 255.695 106.2C255.695 109.496 254.895 112.472 253.295 115.128C251.695 117.752 249.503 119.816 246.719 121.32C243.935 122.824 240.799 123.576 237.311 123.576ZM237.311 116.952C239.295 116.952 241.087 116.504 242.687 115.608C244.287 114.68 245.535 113.4 246.431 111.768C247.359 110.136 247.823 108.28 247.823 106.2C247.823 104.12 247.359 102.264 246.431 100.632C245.535 99 244.287 97.736 242.687 96.84C241.087 95.912 239.295 95.448 237.311 95.448C235.327 95.448 233.535 95.912 231.935 96.84C230.335 97.736 229.071 99 228.143 100.632C227.247 102.264 226.799 104.12 226.799 106.2C226.799 108.28 227.247 110.136 228.143 111.768C229.071 113.4 230.335 114.68 231.935 115.608C233.535 116.504 235.327 116.952 237.311 116.952ZM143.31 182L143.262 161.84L133.374 178.448H129.87L120.03 162.272V182H112.734V148.4H119.166L131.742 169.28L144.126 148.4H150.51L150.606 182H143.31ZM180.706 174.8H165.106L162.13 182H154.162L169.138 148.4H176.818L191.842 182H183.682L180.706 174.8ZM178.258 168.896L172.93 156.032L167.602 168.896H178.258ZM216.736 182L210.256 172.64H209.872H203.104V182H195.328V148.4H209.872C212.848 148.4 215.424 148.896 217.6 149.888C219.808 150.88 221.504 152.288 222.688 154.112C223.872 155.936 224.464 158.096 224.464 160.592C224.464 163.088 223.856 165.248 222.64 167.072C221.456 168.864 219.76 170.24 217.552 171.2L225.088 182H216.736ZM216.592 160.592C216.592 158.704 215.984 157.264 214.768 156.272C213.552 155.248 211.776 154.736 209.44 154.736H203.104V166.448H209.44C211.776 166.448 213.552 165.936 214.768 164.912C215.984 163.888 216.592 162.448 216.592 160.592ZM241.665 182.576C239.009 182.576 236.433 182.224 233.937 181.52C231.473 180.784 229.489 179.84 227.985 178.688L230.625 172.832C232.065 173.888 233.777 174.736 235.761 175.376C237.745 176.016 239.729 176.336 241.713 176.336C243.921 176.336 245.553 176.016 246.609 175.376C247.665 174.704 248.193 173.824 248.193 172.736C248.193 171.936 247.873 171.28 247.233 170.768C246.625 170.224 245.825 169.792 244.833 169.472C243.873 169.152 242.561 168.8 240.897 168.416C238.337 167.808 236.241 167.2 234.609 166.592C232.977 165.984 231.569 165.008 230.385 163.664C229.233 162.32 228.657 160.528 228.657 158.288C228.657 156.336 229.185 154.576 230.241 153.008C231.297 151.408 232.881 150.144 234.993 149.216C237.137 148.288 239.745 147.824 242.817 147.824C244.961 147.824 247.057 148.08 249.105 148.592C251.153 149.104 252.945 149.84 254.481 150.8L252.081 156.704C248.977 154.944 245.873 154.064 242.769 154.064C240.593 154.064 238.977 154.416 237.921 155.12C236.897 155.824 236.385 156.752 236.385 157.904C236.385 159.056 236.977 159.92 238.161 160.496C239.377 161.04 241.217 161.584 243.681 162.128C246.241 162.736 248.337 163.344 249.969 163.952C251.601 164.56 252.993 165.52 254.145 166.832C255.329 168.144 255.921 169.92 255.921 172.16C255.921 174.08 255.377 175.84 254.289 177.44C253.233 179.008 251.633 180.256 249.489 181.184C247.345 182.112 244.737 182.576 241.665 182.576Z" fill="white"/>
<path d="M76.9402 249.205C86.6224 259.168 105.083 259.162 113.103 257.914C104.004 229.433 77.0562 230.148 64.7198 234.066C64.759 234.961 67.258 239.243 76.9402 249.205Z" fill="#B98500" stroke="#715200"/>
<path d="M48.1854 215.939C58.1807 225.587 76.6318 224.992 84.6079 223.489C74.6041 195.313 47.6931 196.888 35.488 201.197C35.5558 202.091 38.1901 206.29 48.1854 215.939Z" fill="#B98500" stroke="#715200"/>
<path d="M15.6942 177.205C23.7039 188.555 41.9395 191.429 50.0561 191.447C45.5105 161.896 18.7813 158.399 5.98484 160.344C5.88387 161.235 7.68438 165.854 15.6942 177.205Z" fill="#B98500" stroke="#715200"/>
<path d="M100.626 233.039C90.6627 223.357 90.6675 204.896 91.9152 196.876C120.396 205.974 119.683 232.922 115.766 245.258C114.87 245.219 110.589 242.72 100.626 233.039Z" fill="#B98500" stroke="#715200"/>
<path d="M69.0869 192.905C58.82 183.546 58.2355 165.095 59.2266 157.039C87.9835 165.223 88.1305 192.18 84.6094 204.635C83.7132 204.625 79.3539 202.264 69.0869 192.905Z" fill="#B98500" stroke="#715200"/>
<path d="M37.6974 160.544C29.3665 149.426 32.2506 131.192 34.7341 123.465C61.4475 136.894 56.5394 163.401 50.7462 174.975C49.8678 174.797 46.0283 171.661 37.6974 160.544Z" fill="#B98500" stroke="#715200"/>
</svg>
