<svg width="60" height="60" viewBox="0 0 60 60" fill="none" xmlns="http://www.w3.org/2000/svg">
<path d="M19.1148 7.5H12.2368C9.62076 7.5 7.5 9.62076 7.5 12.2368C7.5 34.4736 25.5264 52.5 47.7632 52.5C50.3792 52.5 52.5 50.3792 52.5 47.7632V40.8852C52.5 38.8406 51.2552 37.0021 49.357 36.2428L42.7678 33.6071C41.0626 32.9251 39.1208 33.2327 37.7099 34.4084L36.0078 35.8269C34.0211 37.4824 31.0999 37.3499 29.2713 35.5213L24.4787 30.7287C22.6501 28.9001 22.5176 25.9789 24.1731 23.9922L25.5916 22.2901C26.7673 20.8792 27.0749 18.9374 26.3929 17.2322L23.7572 10.643C22.9979 8.74475 21.1594 7.5 19.1148 7.5Z" fill="#B98500"/>
<path d="M23.7572 10.643L21.9003 11.3858V11.3858L23.7572 10.643ZM26.3929 17.2322L28.2498 16.4894L26.3929 17.2322ZM25.5916 22.2901L27.128 23.5704L25.5916 22.2901ZM24.1731 23.9922L25.7096 25.2726L24.1731 23.9922ZM24.4787 30.7287L23.0645 32.1429H23.0645L24.4787 30.7287ZM29.2713 35.5213L30.6855 34.1071L29.2713 35.5213ZM36.0078 35.8269L34.7274 34.2904L36.0078 35.8269ZM37.7099 34.4084L38.9903 35.9448L38.9903 35.9448L37.7099 34.4084ZM42.7678 33.6071L42.025 35.4641L42.7678 33.6071ZM49.357 36.2428L50.0997 34.3858H50.0997L49.357 36.2428ZM12.2368 9.5H19.1148V5.5H12.2368V9.5ZM21.9003 11.3858L24.5359 17.975L28.2498 16.4894L25.6142 9.90026L21.9003 11.3858ZM24.0552 21.0097L22.6367 22.7119L25.7096 25.2726L27.128 23.5704L24.0552 21.0097ZM23.0645 32.1429L27.8571 36.9355L30.6855 34.1071L25.8929 29.3145L23.0645 32.1429ZM37.2881 37.3633L38.9903 35.9448L36.4296 32.872L34.7274 34.2904L37.2881 37.3633ZM42.025 35.4641L48.6142 38.0997L50.0997 34.3858L43.5106 31.7502L42.025 35.4641ZM50.5 40.8852V47.7632H54.5V40.8852H50.5ZM47.7632 50.5C26.631 50.5 9.5 33.369 9.5 12.2368H5.5C5.5 35.5781 24.4219 54.5 47.7632 54.5V50.5ZM50.5 47.7632C50.5 49.2747 49.2747 50.5 47.7632 50.5V54.5C51.4838 54.5 54.5 51.4838 54.5 47.7632H50.5ZM48.6142 38.0997C49.7531 38.5553 50.5 39.6585 50.5 40.8852H54.5C54.5 38.0228 52.7573 35.4489 50.0997 34.3858L48.6142 38.0997ZM38.9903 35.9448C39.8368 35.2394 41.0019 35.0548 42.025 35.4641L43.5106 31.7502C41.1233 30.7953 38.4048 31.2259 36.4296 32.872L38.9903 35.9448ZM27.8571 36.9355C30.4171 39.4955 34.5068 39.681 37.2881 37.3633L34.7274 34.2904C33.5354 35.2837 31.7827 35.2042 30.6855 34.1071L27.8571 36.9355ZM22.6367 22.7119C20.3189 25.4932 20.5045 29.5829 23.0645 32.1429L25.8929 29.3145C24.7958 28.2173 24.7163 26.4646 25.7096 25.2726L22.6367 22.7119ZM24.5359 17.975C24.9452 18.9981 24.7606 20.1632 24.0552 21.0097L27.128 23.5704C28.774 21.5952 29.2047 18.8767 28.2498 16.4894L24.5359 17.975ZM19.1148 9.5C20.3415 9.5 21.4447 10.2469 21.9003 11.3858L25.6142 9.90027C24.5511 7.24266 21.9772 5.5 19.1148 5.5V9.5ZM12.2368 5.5C8.51619 5.5 5.5 8.51619 5.5 12.2368H9.5C9.5 10.7253 10.7253 9.5 12.2368 9.5V5.5Z" fill="#715200"/>
</svg>
