<svg width="23" height="23" fill="none" xmlns="http://www.w3.org/2000/svg"><path d="M19.125 11.5a7.625 7.625 0 0 1-7.625 7.625v2a9.625 9.625 0 0 0 9.625-9.625h-2ZM11.5 19.125A7.625 7.625 0 0 1 3.875 11.5h-2a9.625 9.625 0 0 0 9.625 9.625v-2ZM3.875 11.5A7.625 7.625 0 0 1 11.5 3.875v-2A9.625 9.625 0 0 0 1.875 11.5h2ZM11.5 3.875a7.625 7.625 0 0 1 7.625 7.625h2A9.625 9.625 0 0 0 11.5 1.875v2ZM11.751 15.082a1 1 0 0 0 1.414-1.414l-1.414 1.414ZM9.583 11.5l-.707-.707a1 1 0 0 0 0 1.414l.707-.707Zm3.582-2.168a1 1 0 0 0-1.414-1.414l1.414 1.414Zm0 4.336-2.875-2.875-1.414 1.414 2.875 2.875 1.414-1.414Zm-2.875-1.46 2.875-2.876-1.414-1.414-2.875 2.875 1.414 1.414Z" fill="#B98500"/></svg>