<svg width="60" height="60" fill="none" xmlns="http://www.w3.org/2000/svg"><path d="M30 27.5a5 5 0 1 0 0-10 5 5 0 0 0 0 10Z" stroke="#000" stroke-width="4" stroke-linecap="round" stroke-linejoin="round"/><path d="M30 52.5s17.5-12.115 17.5-27.692c0-4.59-1.844-8.993-5.126-12.239A17.6 17.6 0 0 0 30 7.5a17.6 17.6 0 0 0-12.374 5.07A17.212 17.212 0 0 0 12.5 24.807C12.5 40.385 30 52.5 30 52.5Z" fill="#B98500" stroke="#715200" stroke-width="4" stroke-linecap="round" stroke-linejoin="round"/><circle cx="30" cy="23" r="5" fill="#715200"/></svg>