<svg width="318" height="270" fill="none" xmlns="http://www.w3.org/2000/svg"><path d="M49.88 124.933a133.5 133.5 0 1 1 71.7 128.599" stroke="#fff" stroke-width="3"/><path d="M134.557 115.8h-15.6l-2.976 7.2h-7.968l14.976-33.6h7.68l15.024 33.6h-8.16l-2.976-7.2Zm-2.448-5.904-5.328-12.864-5.328 12.864h10.656Zm39.306-4.224h7.104v13.632c-1.824 1.376-3.936 2.432-6.336 3.168a24.599 24.599 0 0 1-7.248 1.104c-3.488 0-6.624-.736-9.408-2.208-2.784-1.504-4.976-3.568-6.576-6.192-1.568-2.656-2.352-5.648-2.352-8.976 0-3.328.784-6.304 2.352-8.928 1.6-2.656 3.808-4.72 6.624-6.192 2.816-1.504 5.984-2.256 9.504-2.256 2.944 0 5.616.496 8.016 1.488 2.4.992 4.416 2.432 6.048 4.32l-4.992 4.608c-2.4-2.528-5.296-3.792-8.688-3.792-2.144 0-4.048.448-5.712 1.344a9.642 9.642 0 0 0-3.888 3.792c-.928 1.632-1.392 3.504-1.392 5.616 0 2.08.464 3.936 1.392 5.568a10.06 10.06 0 0 0 3.84 3.84c1.664.896 3.552 1.344 5.664 1.344 2.24 0 4.256-.48 6.048-1.44v-9.84ZM207.15 123l-6.48-9.36h-7.152V123h-7.776V89.4h14.544c2.976 0 5.552.496 7.728 1.488 2.208.992 3.904 2.4 5.088 4.224 1.184 1.824 1.776 3.984 1.776 6.48 0 2.496-.608 4.656-1.824 6.48-1.184 1.792-2.88 3.168-5.088 4.128l7.536 10.8h-8.352Zm-.144-21.408c0-1.888-.608-3.328-1.824-4.32-1.216-1.024-2.992-1.536-5.328-1.536h-6.336v11.712h6.336c2.336 0 4.112-.512 5.328-1.536 1.216-1.024 1.824-2.464 1.824-4.32Zm30.305 21.984c-3.488 0-6.64-.752-9.456-2.256-2.784-1.504-4.976-3.568-6.576-6.192-1.568-2.656-2.352-5.632-2.352-8.928 0-3.296.784-6.256 2.352-8.88 1.6-2.656 3.792-4.736 6.576-6.24 2.816-1.504 5.968-2.256 9.456-2.256 3.488 0 6.624.752 9.408 2.256 2.784 1.504 4.976 3.584 6.576 6.24 1.6 2.624 2.4 5.584 2.4 8.88 0 3.296-.8 6.272-2.4 8.928-1.6 2.624-3.792 4.688-6.576 6.192-2.784 1.504-5.92 2.256-9.408 2.256Zm0-6.624c1.984 0 3.776-.448 5.376-1.344a9.817 9.817 0 0 0 3.744-3.84c.928-1.632 1.392-3.488 1.392-5.568 0-2.08-.464-3.936-1.392-5.568-.896-1.632-2.144-2.896-3.744-3.792-1.6-.928-3.392-1.392-5.376-1.392-1.984 0-3.776.464-5.376 1.392-1.6.896-2.864 2.16-3.792 3.792-.896 1.632-1.344 3.488-1.344 5.568 0 2.08.448 3.936 1.344 5.568a10.162 10.162 0 0 0 3.792 3.84c1.6.896 3.392 1.344 5.376 1.344ZM143.31 182l-.048-20.16-9.888 16.608h-3.504l-9.84-16.176V182h-7.296v-33.6h6.432l12.576 20.88 12.384-20.88h6.384l.096 33.6h-7.296Zm37.396-7.2h-15.6l-2.976 7.2h-7.968l14.976-33.6h7.68l15.024 33.6h-8.16l-2.976-7.2Zm-2.448-5.904-5.328-12.864-5.328 12.864h10.656ZM216.736 182l-6.48-9.36h-7.152V182h-7.776v-33.6h14.544c2.976 0 5.552.496 7.728 1.488 2.208.992 3.904 2.4 5.088 4.224 1.184 1.824 1.776 3.984 1.776 6.48 0 2.496-.608 4.656-1.824 6.48-1.184 1.792-2.88 3.168-5.088 4.128l7.536 10.8h-8.352Zm-.144-21.408c0-1.888-.608-3.328-1.824-4.32-1.216-1.024-2.992-1.536-5.328-1.536h-6.336v11.712h6.336c2.336 0 4.112-.512 5.328-1.536 1.216-1.024 1.824-2.464 1.824-4.32Zm25.073 21.984c-2.656 0-5.232-.352-7.728-1.056-2.464-.736-4.448-1.68-5.952-2.832l2.64-5.856c1.44 1.056 3.152 1.904 5.136 2.544 1.984.64 3.968.96 5.952.96 2.208 0 3.84-.32 4.896-.96 1.056-.672 1.584-1.552 1.584-2.64 0-.8-.32-1.456-.96-1.968-.608-.544-1.408-.976-2.4-1.296-.96-.32-2.272-.672-3.936-1.056-2.56-.608-4.656-1.216-6.288-1.824-1.632-.608-3.04-1.584-4.224-2.928-1.152-1.344-1.728-3.136-1.728-5.376 0-1.952.528-3.712 1.584-5.28 1.056-1.6 2.64-2.864 4.752-3.792 2.144-.928 4.752-1.392 7.824-1.392 2.144 0 4.24.256 6.288.768s3.84 1.248 5.376 2.208l-2.4 5.904c-3.104-1.76-6.208-2.64-9.312-2.64-2.176 0-3.792.352-4.848 1.056-1.024.704-1.536 1.632-1.536 2.784s.592 2.016 1.776 2.592c1.216.544 3.056 1.088 5.52 1.632 2.56.608 4.656 1.216 6.288 1.824a10.227 10.227 0 0 1 4.176 2.88c1.184 1.312 1.776 3.088 1.776 5.328 0 1.92-.544 3.68-1.632 5.28-1.056 1.568-2.656 2.816-4.8 3.744-2.144.928-4.752 1.392-7.824 1.392Z" fill="#fff"/><path d="M76.94 249.205c9.682 9.963 28.143 9.957 36.163 8.709-9.099-28.481-36.047-27.766-48.383-23.848.039.895 2.538 5.177 12.22 15.139ZM48.185 215.939c9.996 9.648 28.447 9.053 36.423 7.55-10.004-28.176-36.915-26.601-49.12-22.292.068.894 2.702 5.093 12.697 14.742ZM15.694 177.205c8.01 11.35 26.245 14.224 34.362 14.242-4.545-29.551-31.275-33.048-44.071-31.103-.101.891 1.7 5.51 9.71 16.861ZM100.626 233.039c-9.963-9.682-9.959-28.143-8.71-36.163 28.48 9.098 27.767 36.046 23.85 48.382-.896-.039-5.177-2.538-15.14-12.219ZM69.087 192.905c-10.267-9.359-10.852-27.81-9.86-35.866 28.757 8.184 28.904 35.141 25.382 47.596-.896-.01-5.255-2.371-15.522-11.73ZM37.697 160.544c-8.33-11.118-5.446-29.352-2.963-37.079 26.713 13.429 21.805 39.936 16.012 51.51-.878-.178-4.718-3.314-13.049-14.431Z" fill="#B98500" stroke="#715200"/></svg>