<svg width="60" height="60" fill="none" xmlns="http://www.w3.org/2000/svg"><path d="M19.115 7.5h-6.878A4.737 4.737 0 0 0 7.5 12.237C7.5 34.474 25.526 52.5 47.763 52.5a4.737 4.737 0 0 0 4.737-4.737v-6.878a5 5 0 0 0-3.143-4.642l-6.59-2.636a5 5 0 0 0-5.057.801l-1.702 1.419a5 5 0 0 1-6.737-.306L24.48 30.73a5 5 0 0 1-.306-6.737l1.419-1.702a5 5 0 0 0 .8-5.058l-2.635-6.589A5 5 0 0 0 19.115 7.5Z" fill="#B98500"/><path d="m23.757 10.643-1.857.743 1.857-.743Zm2.636 6.59 1.857-.744-1.857.743Zm-.801 5.057 1.536 1.28-1.536-1.28Zm-1.419 1.702 1.537 1.28-1.537-1.28Zm.306 6.737-1.415 1.414 1.415-1.414Zm4.792 4.792 1.415-1.414-1.415 1.414Zm6.737.306-1.28-1.537 1.28 1.537Zm1.702-1.419 1.28 1.537-1.28-1.537Zm5.058-.8-.743 1.856.743-1.857Zm6.589 2.635.743-1.857-.743 1.857ZM12.237 9.5h6.878v-4h-6.878v4Zm9.663 1.886 2.636 6.589 3.714-1.486L25.614 9.9 21.9 11.386Zm2.155 9.624-1.418 1.702 3.073 2.56 1.418-1.702-3.073-2.56Zm-.99 11.133 4.792 4.792 2.829-2.828-4.793-4.793-2.829 2.829Zm14.223 5.22 1.702-1.418-2.56-3.073-1.703 1.418 2.561 3.073Zm4.737-1.899 6.59 2.636 1.485-3.714-6.59-2.636-1.485 3.714Zm8.475 5.421v6.878h4v-6.878h-4ZM47.763 50.5C26.631 50.5 9.5 33.369 9.5 12.237h-4C5.5 35.578 24.422 54.5 47.763 54.5v-4Zm2.737-2.737a2.737 2.737 0 0 1-2.737 2.737v4a6.737 6.737 0 0 0 6.737-6.737h-4ZM48.614 38.1a3 3 0 0 1 1.886 2.785h4a7 7 0 0 0-4.4-6.5L48.614 38.1Zm-9.624-2.155a3 3 0 0 1 3.035-.48l1.486-3.715a7 7 0 0 0-7.081 1.122l2.56 3.073Zm-11.133.99a7 7 0 0 0 9.431.428l-2.56-3.073a3 3 0 0 1-4.043-.183l-2.828 2.828Zm-5.22-14.223a7 7 0 0 0 .427 9.43l2.829-2.828a3 3 0 0 1-.183-4.041l-3.073-2.561Zm1.899-4.737a3 3 0 0 1-.48 3.035l3.072 2.56a7 7 0 0 0 1.122-7.08l-3.714 1.485ZM19.115 9.5a3 3 0 0 1 2.785 1.886L25.614 9.9a7 7 0 0 0-6.5-4.4v4Zm-6.878-4A6.737 6.737 0 0 0 5.5 12.237h4A2.737 2.737 0 0 1 12.237 9.5v-4Z" fill="#715200"/></svg>